<mxfile host="app.diagrams.net" modified="2024-03-05T04:45:21.255Z" agent="Mozilla/5.0 (Windows NT 10.0; Win64; x64) AppleWebKit/537.36 (KHTML, like Gecko) Chrome/122.0.0.0 Safari/537.36" etag="va8j2JNFyIHKvfx6ZAD3" version="24.0.1" type="onedrive">
  <diagram name="Page-1" id="2w7vg5bwMqIUjHdiFem5">
    <mxGraphModel grid="1" page="1" gridSize="10" guides="1" tooltips="1" connect="1" arrows="1" fold="1" pageScale="1" pageWidth="850" pageHeight="1100" math="0" shadow="0">
      <root>
        <mxCell id="0" />
        <mxCell id="1" parent="0" />
        <mxCell id="2BCJGqaNzl7uD9SpwbzM-5" value="Unity" style="swimlane;fontStyle=1;align=center;verticalAlign=top;childLayout=stackLayout;horizontal=1;startSize=26;horizontalStack=0;resizeParent=1;resizeParentMax=0;resizeLast=0;collapsible=1;marginBottom=0;" collapsed="1" vertex="1" parent="1">
          <mxGeometry x="235" y="24" width="60" height="26" as="geometry">
            <mxRectangle x="235" y="24" width="160" height="86" as="alternateBounds" />
          </mxGeometry>
        </mxCell>
        <mxCell id="2BCJGqaNzl7uD9SpwbzM-6" value="+ field: type" style="text;strokeColor=none;fillColor=none;align=left;verticalAlign=top;spacingLeft=4;spacingRight=4;overflow=hidden;rotatable=0;points=[[0,0.5],[1,0.5]];portConstraint=eastwest;" vertex="1" parent="2BCJGqaNzl7uD9SpwbzM-5">
          <mxGeometry y="26" width="160" height="26" as="geometry" />
        </mxCell>
        <mxCell id="2BCJGqaNzl7uD9SpwbzM-7" value="" style="line;strokeWidth=1;fillColor=none;align=left;verticalAlign=middle;spacingTop=-1;spacingLeft=3;spacingRight=3;rotatable=0;labelPosition=right;points=[];portConstraint=eastwest;" vertex="1" parent="2BCJGqaNzl7uD9SpwbzM-5">
          <mxGeometry y="52" width="160" height="8" as="geometry" />
        </mxCell>
        <mxCell id="2BCJGqaNzl7uD9SpwbzM-8" value="+ method(type): type" style="text;strokeColor=none;fillColor=none;align=left;verticalAlign=top;spacingLeft=4;spacingRight=4;overflow=hidden;rotatable=0;points=[[0,0.5],[1,0.5]];portConstraint=eastwest;" vertex="1" parent="2BCJGqaNzl7uD9SpwbzM-5">
          <mxGeometry y="60" width="160" height="26" as="geometry" />
        </mxCell>
        <mxCell id="F0QiSlCeJy2ZY8RC8an7-10" value="CoinStash" style="swimlane;fontStyle=1;align=center;verticalAlign=top;childLayout=stackLayout;horizontal=1;startSize=26;horizontalStack=0;resizeParent=1;resizeParentMax=0;resizeLast=0;collapsible=1;marginBottom=0;whiteSpace=wrap;html=1;" collapsed="1" vertex="1" parent="1">
          <mxGeometry x="70" y="380" width="90" height="26" as="geometry">
            <mxRectangle x="10" y="440" width="160" height="86" as="alternateBounds" />
          </mxGeometry>
        </mxCell>
        <mxCell id="F0QiSlCeJy2ZY8RC8an7-11" value="+ field: type" style="text;strokeColor=none;fillColor=none;align=left;verticalAlign=top;spacingLeft=4;spacingRight=4;overflow=hidden;rotatable=0;points=[[0,0.5],[1,0.5]];portConstraint=eastwest;whiteSpace=wrap;html=1;" vertex="1" parent="F0QiSlCeJy2ZY8RC8an7-10">
          <mxGeometry y="26" width="160" height="26" as="geometry" />
        </mxCell>
        <mxCell id="F0QiSlCeJy2ZY8RC8an7-12" value="" style="line;strokeWidth=1;fillColor=none;align=left;verticalAlign=middle;spacingTop=-1;spacingLeft=3;spacingRight=3;rotatable=0;labelPosition=right;points=[];portConstraint=eastwest;strokeColor=inherit;" vertex="1" parent="F0QiSlCeJy2ZY8RC8an7-10">
          <mxGeometry y="52" width="160" height="8" as="geometry" />
        </mxCell>
        <mxCell id="F0QiSlCeJy2ZY8RC8an7-13" value="+ method(type): type" style="text;strokeColor=none;fillColor=none;align=left;verticalAlign=top;spacingLeft=4;spacingRight=4;overflow=hidden;rotatable=0;points=[[0,0.5],[1,0.5]];portConstraint=eastwest;whiteSpace=wrap;html=1;" vertex="1" parent="F0QiSlCeJy2ZY8RC8an7-10">
          <mxGeometry y="60" width="160" height="26" as="geometry" />
        </mxCell>
        <mxCell id="2BCJGqaNzl7uD9SpwbzM-49" style="edgeStyle=orthogonalEdgeStyle;rounded=0;orthogonalLoop=1;jettySize=auto;html=1;exitX=0.5;exitY=1;exitDx=0;exitDy=0;entryX=0.5;entryY=0;entryDx=0;entryDy=0;" edge="1" parent="1" source="F0QiSlCeJy2ZY8RC8an7-14" target="F0QiSlCeJy2ZY8RC8an7-10">
          <mxGeometry relative="1" as="geometry" />
        </mxCell>
        <mxCell id="F0QiSlCeJy2ZY8RC8an7-14" value="ScoreTracker" style="swimlane;fontStyle=1;align=center;verticalAlign=top;childLayout=stackLayout;horizontal=1;startSize=26;horizontalStack=0;resizeParent=1;resizeParentMax=0;resizeLast=0;collapsible=1;marginBottom=0;whiteSpace=wrap;html=1;" collapsed="1" vertex="1" parent="1">
          <mxGeometry x="60" y="260" width="110" height="26" as="geometry">
            <mxRectangle x="10" y="300" width="160" height="86" as="alternateBounds" />
          </mxGeometry>
        </mxCell>
        <mxCell id="F0QiSlCeJy2ZY8RC8an7-15" value="+ field: type" style="text;strokeColor=none;fillColor=none;align=left;verticalAlign=top;spacingLeft=4;spacingRight=4;overflow=hidden;rotatable=0;points=[[0,0.5],[1,0.5]];portConstraint=eastwest;whiteSpace=wrap;html=1;" vertex="1" parent="F0QiSlCeJy2ZY8RC8an7-14">
          <mxGeometry y="26" width="160" height="26" as="geometry" />
        </mxCell>
        <mxCell id="F0QiSlCeJy2ZY8RC8an7-16" value="" style="line;strokeWidth=1;fillColor=none;align=left;verticalAlign=middle;spacingTop=-1;spacingLeft=3;spacingRight=3;rotatable=0;labelPosition=right;points=[];portConstraint=eastwest;strokeColor=inherit;" vertex="1" parent="F0QiSlCeJy2ZY8RC8an7-14">
          <mxGeometry y="52" width="160" height="8" as="geometry" />
        </mxCell>
        <mxCell id="F0QiSlCeJy2ZY8RC8an7-17" value="+ method(type): type" style="text;strokeColor=none;fillColor=none;align=left;verticalAlign=top;spacingLeft=4;spacingRight=4;overflow=hidden;rotatable=0;points=[[0,0.5],[1,0.5]];portConstraint=eastwest;whiteSpace=wrap;html=1;" vertex="1" parent="F0QiSlCeJy2ZY8RC8an7-14">
          <mxGeometry y="60" width="160" height="26" as="geometry" />
        </mxCell>
        <mxCell id="E0CtjlFcpj9ViMCeEgzV-5" style="edgeStyle=orthogonalEdgeStyle;rounded=0;orthogonalLoop=1;jettySize=auto;html=1;exitX=0.5;exitY=1;exitDx=0;exitDy=0;entryX=0;entryY=0.5;entryDx=0;entryDy=0;" edge="1" parent="1" source="F0QiSlCeJy2ZY8RC8an7-18" target="E0CtjlFcpj9ViMCeEgzV-1">
          <mxGeometry relative="1" as="geometry" />
        </mxCell>
        <mxCell id="E0CtjlFcpj9ViMCeEgzV-7" style="edgeStyle=orthogonalEdgeStyle;rounded=0;orthogonalLoop=1;jettySize=auto;html=1;exitX=1;exitY=0.5;exitDx=0;exitDy=0;entryX=0;entryY=0.5;entryDx=0;entryDy=0;" edge="1" parent="1" source="F0QiSlCeJy2ZY8RC8an7-18" target="2BCJGqaNzl7uD9SpwbzM-38">
          <mxGeometry relative="1" as="geometry" />
        </mxCell>
        <mxCell id="F0QiSlCeJy2ZY8RC8an7-18" value="Spawner" style="swimlane;fontStyle=1;align=center;verticalAlign=top;childLayout=stackLayout;horizontal=1;startSize=26;horizontalStack=0;resizeParent=1;resizeParentMax=0;resizeLast=0;collapsible=1;marginBottom=0;whiteSpace=wrap;html=1;" vertex="1" parent="1">
          <mxGeometry x="185" y="300" width="175" height="88" as="geometry">
            <mxRectangle x="230" y="320" width="70" height="26" as="alternateBounds" />
          </mxGeometry>
        </mxCell>
        <mxCell id="F0QiSlCeJy2ZY8RC8an7-19" value="+ ObstacleSpawnTime: float&lt;div&gt;+ ObstacleSpeed&lt;span style=&quot;background-color: initial;&quot;&gt;: float&lt;/span&gt;&lt;br&gt;&lt;/div&gt;&lt;div&gt;+ SpeedMultipicity&lt;span style=&quot;background-color: initial;&quot;&gt;: float&lt;/span&gt;&lt;br&gt;&lt;/div&gt;" style="text;strokeColor=none;fillColor=none;align=left;verticalAlign=top;spacingLeft=4;spacingRight=4;overflow=hidden;rotatable=0;points=[[0,0.5],[1,0.5]];portConstraint=eastwest;whiteSpace=wrap;html=1;" vertex="1" parent="F0QiSlCeJy2ZY8RC8an7-18">
          <mxGeometry y="26" width="175" height="54" as="geometry" />
        </mxCell>
        <mxCell id="F0QiSlCeJy2ZY8RC8an7-20" value="" style="line;strokeWidth=1;fillColor=none;align=left;verticalAlign=middle;spacingTop=-1;spacingLeft=3;spacingRight=3;rotatable=0;labelPosition=right;points=[];portConstraint=eastwest;strokeColor=inherit;" vertex="1" parent="F0QiSlCeJy2ZY8RC8an7-18">
          <mxGeometry y="80" width="175" height="8" as="geometry" />
        </mxCell>
        <mxCell id="2BCJGqaNzl7uD9SpwbzM-44" style="edgeStyle=orthogonalEdgeStyle;rounded=0;orthogonalLoop=1;jettySize=auto;html=1;exitX=0.5;exitY=0;exitDx=0;exitDy=0;entryX=0.5;entryY=1;entryDx=0;entryDy=0;" edge="1" parent="1" source="F0QiSlCeJy2ZY8RC8an7-22" target="2BCJGqaNzl7uD9SpwbzM-17">
          <mxGeometry relative="1" as="geometry" />
        </mxCell>
        <mxCell id="E0CtjlFcpj9ViMCeEgzV-9" style="edgeStyle=orthogonalEdgeStyle;rounded=0;orthogonalLoop=1;jettySize=auto;html=1;exitX=0.5;exitY=1;exitDx=0;exitDy=0;entryX=0.5;entryY=0;entryDx=0;entryDy=0;" edge="1" parent="1" source="F0QiSlCeJy2ZY8RC8an7-22" target="2BCJGqaNzl7uD9SpwbzM-21">
          <mxGeometry relative="1" as="geometry" />
        </mxCell>
        <mxCell id="F0QiSlCeJy2ZY8RC8an7-22" value="Player" style="swimlane;fontStyle=1;align=center;verticalAlign=top;childLayout=stackLayout;horizontal=1;startSize=26;horizontalStack=0;resizeParent=1;resizeParentMax=0;resizeLast=0;collapsible=1;marginBottom=0;whiteSpace=wrap;html=1;" vertex="1" parent="1">
          <mxGeometry x="660" y="150" width="160" height="118" as="geometry">
            <mxRectangle x="580" y="170" width="90" height="26" as="alternateBounds" />
          </mxGeometry>
        </mxCell>
        <mxCell id="F0QiSlCeJy2ZY8RC8an7-23" value="+ JumpTime: float&lt;div&gt;+ JumpPower&lt;span style=&quot;background-color: initial;&quot;&gt;: float&lt;/span&gt;&lt;br&gt;&lt;/div&gt;&lt;div&gt;+ FallMultiplier: float&lt;div&gt;+ JumpMultiplier&lt;span style=&quot;background-color: initial;&quot;&gt;: float&lt;/span&gt;&lt;br&gt;&lt;/div&gt;&lt;div&gt;+ PlayerSpeed&lt;span style=&quot;background-color: initial;&quot;&gt;: float&lt;/span&gt;&lt;/div&gt;&lt;/div&gt;" style="text;strokeColor=none;fillColor=none;align=left;verticalAlign=top;spacingLeft=4;spacingRight=4;overflow=hidden;rotatable=0;points=[[0,0.5],[1,0.5]];portConstraint=eastwest;whiteSpace=wrap;html=1;" vertex="1" parent="F0QiSlCeJy2ZY8RC8an7-22">
          <mxGeometry y="26" width="160" height="84" as="geometry" />
        </mxCell>
        <mxCell id="F0QiSlCeJy2ZY8RC8an7-24" value="" style="line;strokeWidth=1;fillColor=none;align=left;verticalAlign=middle;spacingTop=-1;spacingLeft=3;spacingRight=3;rotatable=0;labelPosition=right;points=[];portConstraint=eastwest;strokeColor=inherit;" vertex="1" parent="F0QiSlCeJy2ZY8RC8an7-22">
          <mxGeometry y="110" width="160" height="8" as="geometry" />
        </mxCell>
        <mxCell id="2BCJGqaNzl7uD9SpwbzM-17" value="PlayerMovement" style="swimlane;fontStyle=1;align=center;verticalAlign=top;childLayout=stackLayout;horizontal=1;startSize=26;horizontalStack=0;resizeParent=1;resizeParentMax=0;resizeLast=0;collapsible=1;marginBottom=0;" collapsed="1" vertex="1" parent="1">
          <mxGeometry x="600" y="64" width="130" height="26" as="geometry">
            <mxRectangle x="520" y="40" width="160" height="86" as="alternateBounds" />
          </mxGeometry>
        </mxCell>
        <mxCell id="2BCJGqaNzl7uD9SpwbzM-18" value="+ field: type" style="text;strokeColor=none;fillColor=none;align=left;verticalAlign=top;spacingLeft=4;spacingRight=4;overflow=hidden;rotatable=0;points=[[0,0.5],[1,0.5]];portConstraint=eastwest;" vertex="1" parent="2BCJGqaNzl7uD9SpwbzM-17">
          <mxGeometry y="26" width="160" height="26" as="geometry" />
        </mxCell>
        <mxCell id="2BCJGqaNzl7uD9SpwbzM-19" value="" style="line;strokeWidth=1;fillColor=none;align=left;verticalAlign=middle;spacingTop=-1;spacingLeft=3;spacingRight=3;rotatable=0;labelPosition=right;points=[];portConstraint=eastwest;" vertex="1" parent="2BCJGqaNzl7uD9SpwbzM-17">
          <mxGeometry y="52" width="160" height="8" as="geometry" />
        </mxCell>
        <mxCell id="2BCJGqaNzl7uD9SpwbzM-20" value="+ method(type): type" style="text;strokeColor=none;fillColor=none;align=left;verticalAlign=top;spacingLeft=4;spacingRight=4;overflow=hidden;rotatable=0;points=[[0,0.5],[1,0.5]];portConstraint=eastwest;" vertex="1" parent="2BCJGqaNzl7uD9SpwbzM-17">
          <mxGeometry y="60" width="160" height="26" as="geometry" />
        </mxCell>
        <mxCell id="2BCJGqaNzl7uD9SpwbzM-21" value="2D box Collision" style="swimlane;fontStyle=1;align=center;verticalAlign=top;childLayout=stackLayout;horizontal=1;startSize=26;horizontalStack=0;resizeParent=1;resizeParentMax=0;resizeLast=0;collapsible=1;marginBottom=0;" collapsed="1" vertex="1" parent="1">
          <mxGeometry x="850" y="420" width="130" height="26" as="geometry">
            <mxRectangle x="745" y="346" width="160" height="86" as="alternateBounds" />
          </mxGeometry>
        </mxCell>
        <mxCell id="2BCJGqaNzl7uD9SpwbzM-23" value="" style="line;strokeWidth=1;fillColor=none;align=left;verticalAlign=middle;spacingTop=-1;spacingLeft=3;spacingRight=3;rotatable=0;labelPosition=right;points=[];portConstraint=eastwest;" vertex="1" parent="2BCJGqaNzl7uD9SpwbzM-21">
          <mxGeometry y="26" width="160" height="8" as="geometry" />
        </mxCell>
        <mxCell id="2BCJGqaNzl7uD9SpwbzM-22" value="+ field: type" style="text;strokeColor=none;fillColor=none;align=left;verticalAlign=top;spacingLeft=4;spacingRight=4;overflow=hidden;rotatable=0;points=[[0,0.5],[1,0.5]];portConstraint=eastwest;" vertex="1" parent="2BCJGqaNzl7uD9SpwbzM-21">
          <mxGeometry y="34" width="160" height="26" as="geometry" />
        </mxCell>
        <mxCell id="2BCJGqaNzl7uD9SpwbzM-24" value="+ method(type): type" style="text;strokeColor=none;fillColor=none;align=left;verticalAlign=top;spacingLeft=4;spacingRight=4;overflow=hidden;rotatable=0;points=[[0,0.5],[1,0.5]];portConstraint=eastwest;" vertex="1" parent="2BCJGqaNzl7uD9SpwbzM-21">
          <mxGeometry y="60" width="160" height="26" as="geometry" />
        </mxCell>
        <mxCell id="2BCJGqaNzl7uD9SpwbzM-51" style="edgeStyle=orthogonalEdgeStyle;rounded=0;orthogonalLoop=1;jettySize=auto;html=1;exitX=0;exitY=0.5;exitDx=0;exitDy=0;entryX=0.5;entryY=0;entryDx=0;entryDy=0;" edge="1" parent="1" source="F0QiSlCeJy2ZY8RC8an7-26" target="F0QiSlCeJy2ZY8RC8an7-14">
          <mxGeometry relative="1" as="geometry" />
        </mxCell>
        <mxCell id="2BCJGqaNzl7uD9SpwbzM-52" style="edgeStyle=orthogonalEdgeStyle;rounded=0;orthogonalLoop=1;jettySize=auto;html=1;exitX=0.5;exitY=1;exitDx=0;exitDy=0;entryX=0.5;entryY=0;entryDx=0;entryDy=0;" edge="1" parent="1" source="F0QiSlCeJy2ZY8RC8an7-26" target="F0QiSlCeJy2ZY8RC8an7-18">
          <mxGeometry relative="1" as="geometry" />
        </mxCell>
        <mxCell id="E0CtjlFcpj9ViMCeEgzV-29" style="edgeStyle=orthogonalEdgeStyle;rounded=0;orthogonalLoop=1;jettySize=auto;html=1;exitX=0.75;exitY=0;exitDx=0;exitDy=0;entryX=0.5;entryY=1;entryDx=0;entryDy=0;" edge="1" parent="1" source="F0QiSlCeJy2ZY8RC8an7-26" target="E0CtjlFcpj9ViMCeEgzV-18">
          <mxGeometry relative="1" as="geometry">
            <Array as="points">
              <mxPoint x="285" y="160" />
              <mxPoint x="410" y="160" />
            </Array>
          </mxGeometry>
        </mxCell>
        <mxCell id="E0CtjlFcpj9ViMCeEgzV-48" style="edgeStyle=orthogonalEdgeStyle;rounded=0;orthogonalLoop=1;jettySize=auto;html=1;exitX=0.75;exitY=1;exitDx=0;exitDy=0;" edge="1" parent="1" source="F0QiSlCeJy2ZY8RC8an7-26" target="E0CtjlFcpj9ViMCeEgzV-41">
          <mxGeometry relative="1" as="geometry">
            <Array as="points">
              <mxPoint x="285" y="216" />
              <mxPoint x="360" y="216" />
            </Array>
          </mxGeometry>
        </mxCell>
        <mxCell id="E0CtjlFcpj9ViMCeEgzV-53" style="edgeStyle=orthogonalEdgeStyle;rounded=0;orthogonalLoop=1;jettySize=auto;html=1;exitX=0.25;exitY=0;exitDx=0;exitDy=0;entryX=1;entryY=0.25;entryDx=0;entryDy=0;" edge="1" parent="1" source="F0QiSlCeJy2ZY8RC8an7-26" target="E0CtjlFcpj9ViMCeEgzV-49">
          <mxGeometry relative="1" as="geometry" />
        </mxCell>
        <mxCell id="F0QiSlCeJy2ZY8RC8an7-26" value="Game" style="swimlane;fontStyle=1;align=center;verticalAlign=top;childLayout=stackLayout;horizontal=1;startSize=26;horizontalStack=0;resizeParent=1;resizeParentMax=0;resizeLast=0;collapsible=1;marginBottom=0;whiteSpace=wrap;html=1;" collapsed="1" vertex="1" parent="1">
          <mxGeometry x="225" y="170" width="80" height="26" as="geometry">
            <mxRectangle x="225" y="170" width="160" height="86" as="alternateBounds" />
          </mxGeometry>
        </mxCell>
        <mxCell id="F0QiSlCeJy2ZY8RC8an7-27" value="+ field: type" style="text;strokeColor=none;fillColor=none;align=left;verticalAlign=top;spacingLeft=4;spacingRight=4;overflow=hidden;rotatable=0;points=[[0,0.5],[1,0.5]];portConstraint=eastwest;whiteSpace=wrap;html=1;" vertex="1" parent="F0QiSlCeJy2ZY8RC8an7-26">
          <mxGeometry y="26" width="160" height="26" as="geometry" />
        </mxCell>
        <mxCell id="F0QiSlCeJy2ZY8RC8an7-28" value="" style="line;strokeWidth=1;fillColor=none;align=left;verticalAlign=middle;spacingTop=-1;spacingLeft=3;spacingRight=3;rotatable=0;labelPosition=right;points=[];portConstraint=eastwest;strokeColor=inherit;" vertex="1" parent="F0QiSlCeJy2ZY8RC8an7-26">
          <mxGeometry y="52" width="160" height="8" as="geometry" />
        </mxCell>
        <mxCell id="F0QiSlCeJy2ZY8RC8an7-29" value="+ method(type): type" style="text;strokeColor=none;fillColor=none;align=left;verticalAlign=top;spacingLeft=4;spacingRight=4;overflow=hidden;rotatable=0;points=[[0,0.5],[1,0.5]];portConstraint=eastwest;whiteSpace=wrap;html=1;" vertex="1" parent="F0QiSlCeJy2ZY8RC8an7-26">
          <mxGeometry y="60" width="160" height="26" as="geometry" />
        </mxCell>
        <mxCell id="2BCJGqaNzl7uD9SpwbzM-43" style="edgeStyle=orthogonalEdgeStyle;rounded=0;orthogonalLoop=1;jettySize=auto;html=1;exitX=1;exitY=0.5;exitDx=0;exitDy=0;" edge="1" parent="1" source="F0QiSlCeJy2ZY8RC8an7-26" target="F0QiSlCeJy2ZY8RC8an7-22">
          <mxGeometry relative="1" as="geometry" />
        </mxCell>
        <mxCell id="2BCJGqaNzl7uD9SpwbzM-50" style="edgeStyle=orthogonalEdgeStyle;rounded=0;orthogonalLoop=1;jettySize=auto;html=1;exitX=0.5;exitY=1;exitDx=0;exitDy=0;entryX=0.5;entryY=0;entryDx=0;entryDy=0;" edge="1" parent="1" source="2BCJGqaNzl7uD9SpwbzM-25" target="F0QiSlCeJy2ZY8RC8an7-26">
          <mxGeometry relative="1" as="geometry" />
        </mxCell>
        <mxCell id="F0QiSlCeJy2ZY8RC8an7-55" style="edgeStyle=orthogonalEdgeStyle;rounded=0;orthogonalLoop=1;jettySize=auto;html=1;entryX=1;entryY=0.5;entryDx=0;entryDy=0;" edge="1" parent="1" source="2BCJGqaNzl7uD9SpwbzM-25" target="2BCJGqaNzl7uD9SpwbzM-34">
          <mxGeometry relative="1" as="geometry" />
        </mxCell>
        <mxCell id="E0CtjlFcpj9ViMCeEgzV-58" style="edgeStyle=orthogonalEdgeStyle;rounded=0;orthogonalLoop=1;jettySize=auto;html=1;exitX=0.25;exitY=0;exitDx=0;exitDy=0;entryX=1;entryY=0.5;entryDx=0;entryDy=0;" edge="1" parent="1" source="2BCJGqaNzl7uD9SpwbzM-25" target="E0CtjlFcpj9ViMCeEgzV-54">
          <mxGeometry relative="1" as="geometry" />
        </mxCell>
        <mxCell id="2BCJGqaNzl7uD9SpwbzM-25" value="Title Screen(Scene)" style="swimlane;fontStyle=1;align=center;verticalAlign=top;childLayout=stackLayout;horizontal=1;startSize=0;horizontalStack=0;resizeParent=1;resizeParentMax=0;resizeLast=0;collapsible=1;marginBottom=0;" collapsed="1" vertex="1" parent="1">
          <mxGeometry x="190" y="90" width="150" height="26" as="geometry">
            <mxRectangle x="180" y="160" width="160" height="86" as="alternateBounds" />
          </mxGeometry>
        </mxCell>
        <mxCell id="2BCJGqaNzl7uD9SpwbzM-26" value="+ field: type" style="text;strokeColor=none;fillColor=none;align=left;verticalAlign=top;spacingLeft=4;spacingRight=4;overflow=hidden;rotatable=0;points=[[0,0.5],[1,0.5]];portConstraint=eastwest;" vertex="1" parent="2BCJGqaNzl7uD9SpwbzM-25">
          <mxGeometry y="26" width="160" height="26" as="geometry" />
        </mxCell>
        <mxCell id="2BCJGqaNzl7uD9SpwbzM-27" value="" style="line;strokeWidth=1;fillColor=none;align=left;verticalAlign=middle;spacingTop=-1;spacingLeft=3;spacingRight=3;rotatable=0;labelPosition=right;points=[];portConstraint=eastwest;" vertex="1" parent="2BCJGqaNzl7uD9SpwbzM-25">
          <mxGeometry y="52" width="160" height="8" as="geometry" />
        </mxCell>
        <mxCell id="2BCJGqaNzl7uD9SpwbzM-28" value="+ method(type): type" style="text;strokeColor=none;fillColor=none;align=left;verticalAlign=top;spacingLeft=4;spacingRight=4;overflow=hidden;rotatable=0;points=[[0,0.5],[1,0.5]];portConstraint=eastwest;" vertex="1" parent="2BCJGqaNzl7uD9SpwbzM-25">
          <mxGeometry y="60" width="160" height="26" as="geometry" />
        </mxCell>
        <mxCell id="2BCJGqaNzl7uD9SpwbzM-29" value="" style="endArrow=block;endFill=1;html=1;edgeStyle=orthogonalEdgeStyle;align=left;verticalAlign=top;rounded=0;exitX=0.5;exitY=1;exitDx=0;exitDy=0;entryX=0.5;entryY=0;entryDx=0;entryDy=0;" edge="1" parent="1" source="2BCJGqaNzl7uD9SpwbzM-5" target="2BCJGqaNzl7uD9SpwbzM-25">
          <mxGeometry x="-1" relative="1" as="geometry">
            <mxPoint x="90" y="90" as="sourcePoint" />
            <mxPoint x="70" y="130" as="targetPoint" />
          </mxGeometry>
        </mxCell>
        <mxCell id="2BCJGqaNzl7uD9SpwbzM-32" value="1" style="edgeLabel;html=1;align=center;verticalAlign=middle;resizable=0;points=[];" connectable="0" vertex="1" parent="2BCJGqaNzl7uD9SpwbzM-29">
          <mxGeometry x="-0.8823" y="-1" relative="1" as="geometry">
            <mxPoint x="11" as="offset" />
          </mxGeometry>
        </mxCell>
        <mxCell id="2BCJGqaNzl7uD9SpwbzM-34" value="Sound" style="swimlane;fontStyle=1;align=center;verticalAlign=top;childLayout=stackLayout;horizontal=1;startSize=26;horizontalStack=0;resizeParent=1;resizeParentMax=0;resizeLast=0;collapsible=1;marginBottom=0;" collapsed="1" vertex="1" parent="1">
          <mxGeometry x="20" y="90" width="100" height="26" as="geometry">
            <mxRectangle x="600" y="290" width="160" height="86" as="alternateBounds" />
          </mxGeometry>
        </mxCell>
        <mxCell id="2BCJGqaNzl7uD9SpwbzM-35" value="+ field: type" style="text;strokeColor=none;fillColor=none;align=left;verticalAlign=top;spacingLeft=4;spacingRight=4;overflow=hidden;rotatable=0;points=[[0,0.5],[1,0.5]];portConstraint=eastwest;" vertex="1" parent="2BCJGqaNzl7uD9SpwbzM-34">
          <mxGeometry y="26" width="160" height="26" as="geometry" />
        </mxCell>
        <mxCell id="2BCJGqaNzl7uD9SpwbzM-36" value="" style="line;strokeWidth=1;fillColor=none;align=left;verticalAlign=middle;spacingTop=-1;spacingLeft=3;spacingRight=3;rotatable=0;labelPosition=right;points=[];portConstraint=eastwest;" vertex="1" parent="2BCJGqaNzl7uD9SpwbzM-34">
          <mxGeometry y="52" width="160" height="8" as="geometry" />
        </mxCell>
        <mxCell id="2BCJGqaNzl7uD9SpwbzM-37" value="+ method(type): type" style="text;strokeColor=none;fillColor=none;align=left;verticalAlign=top;spacingLeft=4;spacingRight=4;overflow=hidden;rotatable=0;points=[[0,0.5],[1,0.5]];portConstraint=eastwest;" vertex="1" parent="2BCJGqaNzl7uD9SpwbzM-34">
          <mxGeometry y="60" width="160" height="26" as="geometry" />
        </mxCell>
        <mxCell id="E0CtjlFcpj9ViMCeEgzV-8" style="edgeStyle=orthogonalEdgeStyle;rounded=0;orthogonalLoop=1;jettySize=auto;html=1;exitX=1;exitY=0.5;exitDx=0;exitDy=0;entryX=0;entryY=0.5;entryDx=0;entryDy=0;" edge="1" parent="1" source="2BCJGqaNzl7uD9SpwbzM-38" target="2BCJGqaNzl7uD9SpwbzM-21">
          <mxGeometry relative="1" as="geometry" />
        </mxCell>
        <mxCell id="2BCJGqaNzl7uD9SpwbzM-38" value="Enemies" style="swimlane;fontStyle=1;align=center;verticalAlign=top;childLayout=stackLayout;horizontal=1;startSize=26;horizontalStack=0;resizeParent=1;resizeParentMax=0;resizeLast=0;collapsible=1;marginBottom=0;" collapsed="1" vertex="1" parent="1">
          <mxGeometry x="410" y="300" width="80" height="26" as="geometry">
            <mxRectangle x="330" y="420" width="160" height="86" as="alternateBounds" />
          </mxGeometry>
        </mxCell>
        <mxCell id="2BCJGqaNzl7uD9SpwbzM-39" value="+ field: type" style="text;strokeColor=none;fillColor=none;align=left;verticalAlign=top;spacingLeft=4;spacingRight=4;overflow=hidden;rotatable=0;points=[[0,0.5],[1,0.5]];portConstraint=eastwest;" vertex="1" parent="2BCJGqaNzl7uD9SpwbzM-38">
          <mxGeometry y="26" width="160" height="26" as="geometry" />
        </mxCell>
        <mxCell id="2BCJGqaNzl7uD9SpwbzM-40" value="" style="line;strokeWidth=1;fillColor=none;align=left;verticalAlign=middle;spacingTop=-1;spacingLeft=3;spacingRight=3;rotatable=0;labelPosition=right;points=[];portConstraint=eastwest;" vertex="1" parent="2BCJGqaNzl7uD9SpwbzM-38">
          <mxGeometry y="52" width="160" height="8" as="geometry" />
        </mxCell>
        <mxCell id="2BCJGqaNzl7uD9SpwbzM-41" value="+ method(type): type" style="text;strokeColor=none;fillColor=none;align=left;verticalAlign=top;spacingLeft=4;spacingRight=4;overflow=hidden;rotatable=0;points=[[0,0.5],[1,0.5]];portConstraint=eastwest;" vertex="1" parent="2BCJGqaNzl7uD9SpwbzM-38">
          <mxGeometry y="60" width="160" height="26" as="geometry" />
        </mxCell>
        <mxCell id="F0QiSlCeJy2ZY8RC8an7-34" style="edgeStyle=orthogonalEdgeStyle;rounded=0;orthogonalLoop=1;jettySize=auto;html=1;exitX=0.5;exitY=1;exitDx=0;exitDy=0;" edge="1" parent="1">
          <mxGeometry relative="1" as="geometry">
            <mxPoint x="665" y="416" as="sourcePoint" />
            <mxPoint x="665" y="416" as="targetPoint" />
          </mxGeometry>
        </mxCell>
        <mxCell id="E0CtjlFcpj9ViMCeEgzV-34" style="edgeStyle=orthogonalEdgeStyle;rounded=0;orthogonalLoop=1;jettySize=auto;html=1;exitX=1;exitY=0.5;exitDx=0;exitDy=0;entryX=0;entryY=0.5;entryDx=0;entryDy=0;" edge="1" parent="1" source="E0CtjlFcpj9ViMCeEgzV-1" target="E0CtjlFcpj9ViMCeEgzV-30">
          <mxGeometry relative="1" as="geometry" />
        </mxCell>
        <mxCell id="E0CtjlFcpj9ViMCeEgzV-1" value="Platform Controller" style="swimlane;fontStyle=1;align=center;verticalAlign=top;childLayout=stackLayout;horizontal=1;startSize=26;horizontalStack=0;resizeParent=1;resizeParentMax=0;resizeLast=0;collapsible=1;marginBottom=0;" collapsed="1" vertex="1" parent="1">
          <mxGeometry x="390" y="380" width="140" height="26" as="geometry">
            <mxRectangle x="600" y="290" width="160" height="86" as="alternateBounds" />
          </mxGeometry>
        </mxCell>
        <mxCell id="E0CtjlFcpj9ViMCeEgzV-2" value="+ field: type" style="text;strokeColor=none;fillColor=none;align=left;verticalAlign=top;spacingLeft=4;spacingRight=4;overflow=hidden;rotatable=0;points=[[0,0.5],[1,0.5]];portConstraint=eastwest;" vertex="1" parent="E0CtjlFcpj9ViMCeEgzV-1">
          <mxGeometry y="26" width="160" height="26" as="geometry" />
        </mxCell>
        <mxCell id="E0CtjlFcpj9ViMCeEgzV-3" value="" style="line;strokeWidth=1;fillColor=none;align=left;verticalAlign=middle;spacingTop=-1;spacingLeft=3;spacingRight=3;rotatable=0;labelPosition=right;points=[];portConstraint=eastwest;" vertex="1" parent="E0CtjlFcpj9ViMCeEgzV-1">
          <mxGeometry y="52" width="160" height="8" as="geometry" />
        </mxCell>
        <mxCell id="E0CtjlFcpj9ViMCeEgzV-4" value="+ method(type): type" style="text;strokeColor=none;fillColor=none;align=left;verticalAlign=top;spacingLeft=4;spacingRight=4;overflow=hidden;rotatable=0;points=[[0,0.5],[1,0.5]];portConstraint=eastwest;" vertex="1" parent="E0CtjlFcpj9ViMCeEgzV-1">
          <mxGeometry y="60" width="160" height="26" as="geometry" />
        </mxCell>
        <mxCell id="E0CtjlFcpj9ViMCeEgzV-10" value="CameraController" style="swimlane;fontStyle=1;align=center;verticalAlign=top;childLayout=stackLayout;horizontal=1;startSize=26;horizontalStack=0;resizeParent=1;resizeParentMax=0;resizeLast=0;collapsible=1;marginBottom=0;" vertex="1" parent="1">
          <mxGeometry x="450" y="234" width="160" height="60" as="geometry">
            <mxRectangle x="450" y="234" width="130" height="26" as="alternateBounds" />
          </mxGeometry>
        </mxCell>
        <mxCell id="E0CtjlFcpj9ViMCeEgzV-11" value="+ Smooth: float" style="text;strokeColor=none;fillColor=none;align=left;verticalAlign=top;spacingLeft=4;spacingRight=4;overflow=hidden;rotatable=0;points=[[0,0.5],[1,0.5]];portConstraint=eastwest;" vertex="1" parent="E0CtjlFcpj9ViMCeEgzV-10">
          <mxGeometry y="26" width="160" height="26" as="geometry" />
        </mxCell>
        <mxCell id="E0CtjlFcpj9ViMCeEgzV-12" value="" style="line;strokeWidth=1;fillColor=none;align=left;verticalAlign=middle;spacingTop=-1;spacingLeft=3;spacingRight=3;rotatable=0;labelPosition=right;points=[];portConstraint=eastwest;" vertex="1" parent="E0CtjlFcpj9ViMCeEgzV-10">
          <mxGeometry y="52" width="160" height="8" as="geometry" />
        </mxCell>
        <mxCell id="E0CtjlFcpj9ViMCeEgzV-18" value="Water" style="swimlane;fontStyle=1;align=center;verticalAlign=top;childLayout=stackLayout;horizontal=1;startSize=26;horizontalStack=0;resizeParent=1;resizeParentMax=0;resizeLast=0;collapsible=1;marginBottom=0;" collapsed="1" vertex="1" parent="1">
          <mxGeometry x="370" y="116" width="80" height="26" as="geometry">
            <mxRectangle x="330" y="420" width="160" height="86" as="alternateBounds" />
          </mxGeometry>
        </mxCell>
        <mxCell id="E0CtjlFcpj9ViMCeEgzV-19" value="+ field: type" style="text;strokeColor=none;fillColor=none;align=left;verticalAlign=top;spacingLeft=4;spacingRight=4;overflow=hidden;rotatable=0;points=[[0,0.5],[1,0.5]];portConstraint=eastwest;" vertex="1" parent="E0CtjlFcpj9ViMCeEgzV-18">
          <mxGeometry y="26" width="160" height="26" as="geometry" />
        </mxCell>
        <mxCell id="E0CtjlFcpj9ViMCeEgzV-20" value="" style="line;strokeWidth=1;fillColor=none;align=left;verticalAlign=middle;spacingTop=-1;spacingLeft=3;spacingRight=3;rotatable=0;labelPosition=right;points=[];portConstraint=eastwest;" vertex="1" parent="E0CtjlFcpj9ViMCeEgzV-18">
          <mxGeometry y="52" width="160" height="8" as="geometry" />
        </mxCell>
        <mxCell id="E0CtjlFcpj9ViMCeEgzV-21" value="+ method(type): type" style="text;strokeColor=none;fillColor=none;align=left;verticalAlign=top;spacingLeft=4;spacingRight=4;overflow=hidden;rotatable=0;points=[[0,0.5],[1,0.5]];portConstraint=eastwest;" vertex="1" parent="E0CtjlFcpj9ViMCeEgzV-18">
          <mxGeometry y="60" width="160" height="26" as="geometry" />
        </mxCell>
        <mxCell id="E0CtjlFcpj9ViMCeEgzV-26" style="edgeStyle=orthogonalEdgeStyle;rounded=0;orthogonalLoop=1;jettySize=auto;html=1;exitX=0.5;exitY=1;exitDx=0;exitDy=0;entryX=0.5;entryY=0;entryDx=0;entryDy=0;" edge="1" parent="1" source="E0CtjlFcpj9ViMCeEgzV-22" target="E0CtjlFcpj9ViMCeEgzV-18">
          <mxGeometry relative="1" as="geometry" />
        </mxCell>
        <mxCell id="E0CtjlFcpj9ViMCeEgzV-22" value="Water Rise" style="swimlane;fontStyle=1;align=center;verticalAlign=top;childLayout=stackLayout;horizontal=1;startSize=26;horizontalStack=0;resizeParent=1;resizeParentMax=0;resizeLast=0;collapsible=1;marginBottom=0;" vertex="1" parent="1">
          <mxGeometry x="400" y="-6" width="160" height="60" as="geometry">
            <mxRectangle x="370" y="50" width="80" height="26" as="alternateBounds" />
          </mxGeometry>
        </mxCell>
        <mxCell id="E0CtjlFcpj9ViMCeEgzV-23" value="+ RiseSpeed: float" style="text;strokeColor=none;fillColor=none;align=left;verticalAlign=top;spacingLeft=4;spacingRight=4;overflow=hidden;rotatable=0;points=[[0,0.5],[1,0.5]];portConstraint=eastwest;" vertex="1" parent="E0CtjlFcpj9ViMCeEgzV-22">
          <mxGeometry y="26" width="160" height="26" as="geometry" />
        </mxCell>
        <mxCell id="E0CtjlFcpj9ViMCeEgzV-24" value="" style="line;strokeWidth=1;fillColor=none;align=left;verticalAlign=middle;spacingTop=-1;spacingLeft=3;spacingRight=3;rotatable=0;labelPosition=right;points=[];portConstraint=eastwest;" vertex="1" parent="E0CtjlFcpj9ViMCeEgzV-22">
          <mxGeometry y="52" width="160" height="8" as="geometry" />
        </mxCell>
        <mxCell id="E0CtjlFcpj9ViMCeEgzV-60" style="edgeStyle=orthogonalEdgeStyle;rounded=0;orthogonalLoop=1;jettySize=auto;html=1;exitX=0.5;exitY=0;exitDx=0;exitDy=0;entryX=0.5;entryY=1;entryDx=0;entryDy=0;" edge="1" parent="1" source="E0CtjlFcpj9ViMCeEgzV-30" target="2BCJGqaNzl7uD9SpwbzM-21">
          <mxGeometry relative="1" as="geometry" />
        </mxCell>
        <mxCell id="E0CtjlFcpj9ViMCeEgzV-30" value="Platforms" style="swimlane;fontStyle=1;align=center;verticalAlign=top;childLayout=stackLayout;horizontal=1;startSize=26;horizontalStack=0;resizeParent=1;resizeParentMax=0;resizeLast=0;collapsible=1;marginBottom=0;" collapsed="1" vertex="1" parent="1">
          <mxGeometry x="730" y="510" width="140" height="26" as="geometry">
            <mxRectangle x="730" y="510" width="160" height="86" as="alternateBounds" />
          </mxGeometry>
        </mxCell>
        <mxCell id="E0CtjlFcpj9ViMCeEgzV-31" value="+ field: type" style="text;strokeColor=none;fillColor=none;align=left;verticalAlign=top;spacingLeft=4;spacingRight=4;overflow=hidden;rotatable=0;points=[[0,0.5],[1,0.5]];portConstraint=eastwest;" vertex="1" parent="E0CtjlFcpj9ViMCeEgzV-30">
          <mxGeometry y="26" width="160" height="26" as="geometry" />
        </mxCell>
        <mxCell id="E0CtjlFcpj9ViMCeEgzV-32" value="" style="line;strokeWidth=1;fillColor=none;align=left;verticalAlign=middle;spacingTop=-1;spacingLeft=3;spacingRight=3;rotatable=0;labelPosition=right;points=[];portConstraint=eastwest;" vertex="1" parent="E0CtjlFcpj9ViMCeEgzV-30">
          <mxGeometry y="52" width="160" height="8" as="geometry" />
        </mxCell>
        <mxCell id="E0CtjlFcpj9ViMCeEgzV-33" value="+ method(type): type" style="text;strokeColor=none;fillColor=none;align=left;verticalAlign=top;spacingLeft=4;spacingRight=4;overflow=hidden;rotatable=0;points=[[0,0.5],[1,0.5]];portConstraint=eastwest;" vertex="1" parent="E0CtjlFcpj9ViMCeEgzV-30">
          <mxGeometry y="60" width="160" height="26" as="geometry" />
        </mxCell>
        <mxCell id="E0CtjlFcpj9ViMCeEgzV-40" style="edgeStyle=orthogonalEdgeStyle;rounded=0;orthogonalLoop=1;jettySize=auto;html=1;exitX=0.5;exitY=1;exitDx=0;exitDy=0;entryX=0.75;entryY=0;entryDx=0;entryDy=0;" edge="1" parent="1" source="E0CtjlFcpj9ViMCeEgzV-36" target="F0QiSlCeJy2ZY8RC8an7-22">
          <mxGeometry relative="1" as="geometry" />
        </mxCell>
        <mxCell id="E0CtjlFcpj9ViMCeEgzV-36" value="Change Sprite" style="swimlane;fontStyle=1;align=center;verticalAlign=top;childLayout=stackLayout;horizontal=1;startSize=26;horizontalStack=0;resizeParent=1;resizeParentMax=0;resizeLast=0;collapsible=1;marginBottom=0;" collapsed="1" vertex="1" parent="1">
          <mxGeometry x="760" y="64" width="130" height="26" as="geometry">
            <mxRectangle x="520" y="40" width="160" height="86" as="alternateBounds" />
          </mxGeometry>
        </mxCell>
        <mxCell id="E0CtjlFcpj9ViMCeEgzV-37" value="+ field: type" style="text;strokeColor=none;fillColor=none;align=left;verticalAlign=top;spacingLeft=4;spacingRight=4;overflow=hidden;rotatable=0;points=[[0,0.5],[1,0.5]];portConstraint=eastwest;" vertex="1" parent="E0CtjlFcpj9ViMCeEgzV-36">
          <mxGeometry y="26" width="160" height="26" as="geometry" />
        </mxCell>
        <mxCell id="E0CtjlFcpj9ViMCeEgzV-38" value="" style="line;strokeWidth=1;fillColor=none;align=left;verticalAlign=middle;spacingTop=-1;spacingLeft=3;spacingRight=3;rotatable=0;labelPosition=right;points=[];portConstraint=eastwest;" vertex="1" parent="E0CtjlFcpj9ViMCeEgzV-36">
          <mxGeometry y="52" width="160" height="8" as="geometry" />
        </mxCell>
        <mxCell id="E0CtjlFcpj9ViMCeEgzV-39" value="+ method(type): type" style="text;strokeColor=none;fillColor=none;align=left;verticalAlign=top;spacingLeft=4;spacingRight=4;overflow=hidden;rotatable=0;points=[[0,0.5],[1,0.5]];portConstraint=eastwest;" vertex="1" parent="E0CtjlFcpj9ViMCeEgzV-36">
          <mxGeometry y="60" width="160" height="26" as="geometry" />
        </mxCell>
        <mxCell id="E0CtjlFcpj9ViMCeEgzV-47" style="edgeStyle=orthogonalEdgeStyle;rounded=0;orthogonalLoop=1;jettySize=auto;html=1;exitX=1;exitY=0.5;exitDx=0;exitDy=0;entryX=0;entryY=0.5;entryDx=0;entryDy=0;" edge="1" parent="1" source="E0CtjlFcpj9ViMCeEgzV-41" target="E0CtjlFcpj9ViMCeEgzV-10">
          <mxGeometry relative="1" as="geometry" />
        </mxCell>
        <mxCell id="E0CtjlFcpj9ViMCeEgzV-41" value="Main Camera" style="swimlane;fontStyle=1;align=center;verticalAlign=top;childLayout=stackLayout;horizontal=1;startSize=26;horizontalStack=0;resizeParent=1;resizeParentMax=0;resizeLast=0;collapsible=1;marginBottom=0;" collapsed="1" vertex="1" parent="1">
          <mxGeometry x="310" y="234" width="100" height="26" as="geometry">
            <mxRectangle x="330" y="420" width="160" height="86" as="alternateBounds" />
          </mxGeometry>
        </mxCell>
        <mxCell id="E0CtjlFcpj9ViMCeEgzV-42" value="+ field: type" style="text;strokeColor=none;fillColor=none;align=left;verticalAlign=top;spacingLeft=4;spacingRight=4;overflow=hidden;rotatable=0;points=[[0,0.5],[1,0.5]];portConstraint=eastwest;" vertex="1" parent="E0CtjlFcpj9ViMCeEgzV-41">
          <mxGeometry y="26" width="160" height="26" as="geometry" />
        </mxCell>
        <mxCell id="E0CtjlFcpj9ViMCeEgzV-43" value="" style="line;strokeWidth=1;fillColor=none;align=left;verticalAlign=middle;spacingTop=-1;spacingLeft=3;spacingRight=3;rotatable=0;labelPosition=right;points=[];portConstraint=eastwest;" vertex="1" parent="E0CtjlFcpj9ViMCeEgzV-41">
          <mxGeometry y="52" width="160" height="8" as="geometry" />
        </mxCell>
        <mxCell id="E0CtjlFcpj9ViMCeEgzV-44" value="+ method(type): type" style="text;strokeColor=none;fillColor=none;align=left;verticalAlign=top;spacingLeft=4;spacingRight=4;overflow=hidden;rotatable=0;points=[[0,0.5],[1,0.5]];portConstraint=eastwest;" vertex="1" parent="E0CtjlFcpj9ViMCeEgzV-41">
          <mxGeometry y="60" width="160" height="26" as="geometry" />
        </mxCell>
        <mxCell id="E0CtjlFcpj9ViMCeEgzV-49" value="EventSystem" style="swimlane;fontStyle=1;align=center;verticalAlign=top;childLayout=stackLayout;horizontal=1;startSize=26;horizontalStack=0;resizeParent=1;resizeParentMax=0;resizeLast=0;collapsible=1;marginBottom=0;whiteSpace=wrap;html=1;" collapsed="1" vertex="1" parent="1">
          <mxGeometry x="15" y="142" width="110" height="26" as="geometry">
            <mxRectangle x="10" y="300" width="160" height="86" as="alternateBounds" />
          </mxGeometry>
        </mxCell>
        <mxCell id="E0CtjlFcpj9ViMCeEgzV-50" value="+ field: type" style="text;strokeColor=none;fillColor=none;align=left;verticalAlign=top;spacingLeft=4;spacingRight=4;overflow=hidden;rotatable=0;points=[[0,0.5],[1,0.5]];portConstraint=eastwest;whiteSpace=wrap;html=1;" vertex="1" parent="E0CtjlFcpj9ViMCeEgzV-49">
          <mxGeometry y="26" width="160" height="26" as="geometry" />
        </mxCell>
        <mxCell id="E0CtjlFcpj9ViMCeEgzV-51" value="" style="line;strokeWidth=1;fillColor=none;align=left;verticalAlign=middle;spacingTop=-1;spacingLeft=3;spacingRight=3;rotatable=0;labelPosition=right;points=[];portConstraint=eastwest;strokeColor=inherit;" vertex="1" parent="E0CtjlFcpj9ViMCeEgzV-49">
          <mxGeometry y="52" width="160" height="8" as="geometry" />
        </mxCell>
        <mxCell id="E0CtjlFcpj9ViMCeEgzV-52" value="+ method(type): type" style="text;strokeColor=none;fillColor=none;align=left;verticalAlign=top;spacingLeft=4;spacingRight=4;overflow=hidden;rotatable=0;points=[[0,0.5],[1,0.5]];portConstraint=eastwest;whiteSpace=wrap;html=1;" vertex="1" parent="E0CtjlFcpj9ViMCeEgzV-49">
          <mxGeometry y="60" width="160" height="26" as="geometry" />
        </mxCell>
        <mxCell id="E0CtjlFcpj9ViMCeEgzV-54" value="Title Screen(script)" style="swimlane;fontStyle=1;align=center;verticalAlign=top;childLayout=stackLayout;horizontal=1;startSize=26;horizontalStack=0;resizeParent=1;resizeParentMax=0;resizeLast=0;collapsible=1;marginBottom=0;" collapsed="1" vertex="1" parent="1">
          <mxGeometry x="25" y="24" width="145" height="26" as="geometry">
            <mxRectangle x="600" y="290" width="160" height="86" as="alternateBounds" />
          </mxGeometry>
        </mxCell>
        <mxCell id="E0CtjlFcpj9ViMCeEgzV-55" value="+ field: type" style="text;strokeColor=none;fillColor=none;align=left;verticalAlign=top;spacingLeft=4;spacingRight=4;overflow=hidden;rotatable=0;points=[[0,0.5],[1,0.5]];portConstraint=eastwest;" vertex="1" parent="E0CtjlFcpj9ViMCeEgzV-54">
          <mxGeometry y="26" width="160" height="26" as="geometry" />
        </mxCell>
        <mxCell id="E0CtjlFcpj9ViMCeEgzV-56" value="" style="line;strokeWidth=1;fillColor=none;align=left;verticalAlign=middle;spacingTop=-1;spacingLeft=3;spacingRight=3;rotatable=0;labelPosition=right;points=[];portConstraint=eastwest;" vertex="1" parent="E0CtjlFcpj9ViMCeEgzV-54">
          <mxGeometry y="52" width="160" height="8" as="geometry" />
        </mxCell>
        <mxCell id="E0CtjlFcpj9ViMCeEgzV-57" value="+ method(type): type" style="text;strokeColor=none;fillColor=none;align=left;verticalAlign=top;spacingLeft=4;spacingRight=4;overflow=hidden;rotatable=0;points=[[0,0.5],[1,0.5]];portConstraint=eastwest;" vertex="1" parent="E0CtjlFcpj9ViMCeEgzV-54">
          <mxGeometry y="60" width="160" height="26" as="geometry" />
        </mxCell>
      </root>
    </mxGraphModel>
  </diagram>
</mxfile>
